<?xml version="1.0" encoding="UTF-8" standalone="no"?>
<!-- Generator: Adobe Illustrator 16.0.4, SVG Export Plug-In . SVG Version: 6.00 Build 0)  -->

<svg
   xmlns:dc="http://purl.org/dc/elements/1.1/"
   xmlns:cc="http://creativecommons.org/ns#"
   xmlns:rdf="http://www.w3.org/1999/02/22-rdf-syntax-ns#"
   xmlns:svg="http://www.w3.org/2000/svg"
   xmlns="http://www.w3.org/2000/svg"
   xmlns:sodipodi="http://sodipodi.sourceforge.net/DTD/sodipodi-0.dtd"
   xmlns:inkscape="http://www.inkscape.org/namespaces/inkscape"
   version="1.1"
   id="Layer_1"
   x="0px"
   y="0px"
   width="100px"
   height="100px"
   viewBox="0 65.326 612 502.174"
   enable-background="new 0 65.326 612 502.174"
   xml:space="preserve"
   inkscape:version="0.48.4 r9939"
   sodipodi:docname="herblore.svg"><metadata
   id="metadata3860"><rdf:RDF><cc:Work
       rdf:about=""><dc:format>image/svg+xml</dc:format><dc:type
         rdf:resource="http://purl.org/dc/dcmitype/StillImage" /><dc:title></dc:title></cc:Work></rdf:RDF></metadata><defs
   id="defs3858" /><sodipodi:namedview
   pagecolor="#ffffff"
   bordercolor="#666666"
   borderopacity="1"
   objecttolerance="10"
   gridtolerance="10"
   guidetolerance="10"
   inkscape:pageopacity="0"
   inkscape:pageshadow="2"
   inkscape:window-width="1304"
   inkscape:window-height="745"
   id="namedview3856"
   showgrid="false"
   inkscape:zoom="2.36"
   inkscape:cx="50"
   inkscape:cy="50"
   inkscape:window-x="-8"
   inkscape:window-y="-8"
   inkscape:window-maximized="1"
   inkscape:current-layer="Layer_1" />

  <g
   id="g3852"
   transform="matrix(1.62031,0,0,1.62031,11.711585,131.15221)">
    <path
   style="fill:#88bf27;fill-opacity:1"
   d="m 89.573265,292.24714 c -32.38622,-15.99849 -43.61222,-27.18472 -64.17056,-63.94328 -12.20866,-21.82924 -20.1612995,-48.318 -22.4261695,-74.69739 -4.19917,-48.90863 1.6269,-50.48936 49.8694895,-13.53064 l 31.83207,24.3866 -13.43765,-26.00285 c -14.7208,-28.48585 -17.56843,-53.043242 -6.15078,-53.043242 4.00777,0 18.69248,4.45545 32.63267,9.90101 13.940205,5.445552 26.201935,9.901012 27.248285,9.901012 1.04636,0 4.08276,-8.121642 6.74755,-18.048092 9.12924,-34.00679 38.85166,-87.56269028 48.59548,-87.56269028 8.7497,0 53.99174,83.01358028 53.99174,99.06819028 0,9.434162 15.45468,7.675332 31.35484,-3.56835 7.53752,-5.3301 19.80502,-9.69108 27.26111,-9.69108 11.72079,0 12.91606,3.19186 8.82679,23.571092 -2.60136,12.9641 -6.72704,28.43725 -9.16818,34.38479 -3.6191,8.81749 0.44168,8.12172 21.99784,-3.76908 38.55364,-21.26695 46.80947,-19.27877 46.80947,11.2727 0,51.03633 -41.08777,118.34979 -85.03455,139.3108 -28.28972,13.49317 -73.56454,17.51444 -80.42067,7.1429 -5.35332,-8.0982 10.94942,-13.11299 31.76073,-9.76975 17.99843,2.89138 73.59307,-22.74806 73.80174,-34.03628 0.065,-3.51488 6.1009,-12.82275 13.41318,-20.68417 14.00821,-15.06022 32.32972,-58.05322 31.88275,-74.8156 -0.18187,-6.8213 -3.71076,-5.28145 -11.345,4.95051 -12.4593,16.69885 -27.1706,20.16523 -20.91678,4.92856 3.40944,-8.30669 0.94505,-8.11494 -15.12988,1.17723 -23.08836,13.34631 -72.15349,60.66015 -72.15349,69.57811 0,3.49723 -7.14836,12.37449 -15.88523,19.72724 -8.73688,7.35275 -4.18329,5.60113 10.11909,-3.89247 14.30238,-9.4936 27.77719,-17.2611 29.94403,-17.2611 9.80825,0 46.5486,-42.97901 43.36692,-50.7308 -1.9584,-4.77139 -0.67088,-8.67526 2.86114,-8.67526 13.52505,0 13.56804,12.30919 0.0989,28.31816 -15.95027,18.95794 -18.19603,27.67306 -5.19888,20.17533 4.85382,-2.80005 0.88251,4.01037 -8.82513,15.13426 -17.62755,20.19924 -55.76871,44.84903 -61.33848,39.64171 -1.61984,-1.51443 8.34161,-9.27519 22.13655,-17.24613 13.79492,-7.97094 25.0817,-16.0272 25.0817,-17.9028 0,-1.8756 -10.3254,2.9824 -22.94534,10.79555 -51.80846,32.07524 -74.63751,34.1281 -54.9614,4.94232 5.39552,-8.00323 13.46576,-21.07253 17.93388,-29.04289 4.46811,-7.97036 18.51044,-24.30703 31.20517,-36.30371 23.26272,-21.98356 29.95101,-33.48468 38.34205,-65.93263 4.24791,-16.42658 3.17655,-17.47956 -14.70107,-14.44868 -10.6056,1.79801 -21.16282,6.11294 -23.4605,9.58875 -2.29769,3.47579 -11.55657,-9.32927 -20.57531,-28.455702 -9.01873,-19.12643 -20.63658,-43.68623 -25.81745,-54.57734 -5.18086,-10.89111 -9.59314,-15.34657 -9.80505,-9.90101 -0.21194,5.44555 -5.47724,15.84161 -11.70073,23.10236 -9.67617,11.28888 -10.67815,11.47827 -6.91643,1.30734 2.81196,-7.60297 1.65233,-10.30694 -3.21429,-7.49493 -4.63361,2.67738 -5.78886,13.49119 -2.95175,27.63018 3.89669,19.41945 2.84233,22.57843 -6.42606,19.25326 -8.18625,-2.93693 -11.08758,0.18409 -11.08758,11.927142 0,8.74774 -3.25026,17.78302 -7.22279,20.07841 -3.97253,2.2954 -6.66104,20.24551 -5.97446,39.88914 0.92474,26.45738 4.9145,38.73709 15.39127,47.37132 13.69288,11.28473 14.01628,11.18274 10.16293,-3.20498 -2.18901,-8.17334 -1.29153,-13.30718 1.99439,-11.40852 3.28592,1.89866 5.89048,-1.81012 5.78791,-8.24173 -0.10258,-6.43161 2.10559,-22.89968 4.90702,-36.59569 3.96024,-19.36139 2.28252,-27.80583 -7.54056,-37.95387 -13.1232,-13.55733 -7.3995,-17.31201 10.36933,-6.80215 13.76666,8.14266 20.47764,94.19584 7.12575,91.37193 -4.97224,-1.05162 -11.19146,5.51372 -13.82048,14.58964 -2.62903,9.07593 -8.78265,15.66171 -13.67471,14.63508 -4.9528,-1.03939 -2.3292,5.93686 5.92007,15.74166 8.14811,9.68457 14.81474,26.11863 14.81474,36.52016 0,17.89025 -1.62087,18.89758 -30.00544,18.64758 -16.50299,-0.14535 -39.53658,-4.97256 -51.185755,-10.72714 z m 15.214445,-20.88152 c -6.426425,-6.63901 -11.806465,-14.80734 -11.955645,-18.15186 -0.1492,-3.34451 -14.29289,-20.93244 -31.43043,-39.08429 -25.58153,-27.09563 -30.95108,-30.34489 -29.99678,-18.15186 0.6393,8.16834 4.19284,14.85152 7.89674,14.85152 3.7039,0 4.81242,1.79688 2.46337,3.99306 -2.34905,2.19619 3.47554,10.70513 12.94352,18.90876 18.22167,15.78834 23.22328,27.31486 8.38939,19.33386 -15.88931,-8.54886 1.18104,5.78333 21.12681,17.73797 25.626855,15.35963 35.137985,15.61997 20.563025,0.56284 z m 51.85654,5.47024 c -5.82458,-3.51918 -7.94825,-6.444 -4.71926,-6.49959 3.229,-0.0555 -1.34907,-11.02304 -10.17349,-24.37209 -8.82441,-13.34906 -12.26057,-22.08467 -7.63592,-19.41247 13.84516,7.99996 9.49656,-5.317 -5.71174,-17.49138 -7.76611,-6.21683 -14.12021,-9.2532 -14.12021,-6.74747 0,2.50572 -3.73738,1.06169 -8.3053,-3.20897 -6.367015,-5.95268 -5.80302,-10.49708 2.4166,-19.47199 13.91255,-15.19098 14.931,-59.08866 1.48284,-63.91338 -8.26792,-2.96624 -8.58407,-1.00599 -1.7903,11.10057 8.00096,14.25777 7.82873,14.35321 -5.68762,3.15179 -17.825235,-14.77229 -26.402195,-14.77229 -19.638885,0 6.49001,14.17536 10.26451,47.85488 5.36316,47.85488 -1.96495,0 -13.44181,-7.76397 -25.50414,-17.25326 -15.25427,-12.00036 -22.848,-14.68273 -24.94173,-8.81029 -3.39939,9.53454 19.16162,52.02426 28.29641,53.29133 3.27159,0.4538 9.6549,1.19637 14.18513,1.65017 4.53023,0.4538 9.70797,4.95141 11.50608,9.99471 2.26599,6.35563 0.27993,7.47271 -6.47177,3.6401 -5.35758,-3.04125 -0.20991,4.98127 11.43926,17.8278 21.092565,23.26056 50.105905,43.60963 63.540945,44.56567 3.88305,0.27632 2.29453,-2.37694 -3.53006,-5.89613 z m -40.69927,-30.32769 -26.371715,-23.72703 30.005445,21.53141 c 16.50299,11.84227 30.00544,22.51943 30.00544,23.72703 0,6.19454 -9.78146,-0.0663 -33.63917,-21.53141 z m 104.24021,-57.97444 c 0,-3.92322 22.21369,-43.71133 24.40402,-43.71133 1.20424,0 3.85231,5.9447 5.8846,13.21045 2.03228,7.26575 0.8143,11.54591 -2.70663,9.51146 -3.52092,-2.03445 -6.40168,0.61397 -6.40168,5.88536 0,5.27141 -4.76557,11.29409 -10.59016,13.38374 -5.82458,2.08966 -10.59015,2.8638 -10.59015,1.72032 z M 178.93932,78.815658 c 0,-9.07592 1.60245,-12.7888 3.56102,-8.25084 1.95855,4.53796 1.95855,11.96372 0,16.50168 -1.95857,4.53797 -3.56102,0.82509 -3.56102,-8.25084 z"
   id="path3854"
   inkscape:connector-curvature="0" />
  </g>
</svg>